<svg width="722" height="458" viewBox="0 0 722 458" fill="none" xmlns="http://www.w3.org/2000/svg">
<g filter="url(#filter0_i_21_2)">
<path d="M697 0H25C11.1929 0 0 11.1929 0 25V433C0 446.807 11.1929 458 25 458H697C710.807 458 722 446.807 722 433V25C722 11.1929 710.807 0 697 0Z" fill="url(#paint0_linear_21_2)"/>
</g>
<path d="M222.776 362.16V344.64H228.968L232.568 353.88H233.048L236.624 344.64H242.936V362.16H238.52V347.208L239.216 347.256L234.704 358.632H230.648L226.112 347.256L226.856 347.208V362.16H222.776ZM245.679 362.16V357.408H250.383V362.16H245.679ZM261.818 362.16L256.73 344.64H261.338L265.154 359.016L264.314 358.608H266.618L265.754 359.016L269.306 344.64H273.77L269.018 362.16H261.818ZM276.074 362.16V344.64H280.538V362.16H276.074ZM284.135 362.16V344.64H291.455L297.287 358.608H298.127L297.647 359.04V344.64H301.823V362.16H294.455L288.623 348.192H287.783L288.263 347.76V362.16H284.135ZM305.418 362.16V344.64H309.882V362.16H305.418ZM321.663 362.64C320.079 362.64 318.719 362.368 317.583 361.824C316.447 361.264 315.511 360.536 314.775 359.64C314.039 358.728 313.495 357.744 313.143 356.688C312.791 355.632 312.615 354.608 312.615 353.616V353.088C312.615 351.984 312.791 350.904 313.143 349.848C313.511 348.776 314.063 347.808 314.799 346.944C315.551 346.08 316.487 345.392 317.607 344.88C318.727 344.368 320.039 344.112 321.543 344.112C323.143 344.112 324.559 344.416 325.791 345.024C327.039 345.616 328.039 346.456 328.791 347.544C329.543 348.616 329.983 349.864 330.111 351.288H325.647C325.535 350.68 325.295 350.152 324.927 349.704C324.559 349.256 324.087 348.912 323.511 348.672C322.935 348.416 322.279 348.288 321.543 348.288C320.855 348.288 320.231 348.408 319.671 348.648C319.127 348.888 318.663 349.232 318.279 349.68C317.911 350.112 317.623 350.64 317.415 351.264C317.223 351.888 317.127 352.592 317.127 353.376C317.127 354.16 317.223 354.864 317.415 355.488C317.623 356.112 317.919 356.648 318.303 357.096C318.703 357.544 319.183 357.888 319.743 358.128C320.303 358.352 320.943 358.464 321.663 358.464C322.783 358.464 323.727 358.192 324.495 357.648C325.279 357.104 325.751 356.376 325.911 355.464H330.375C330.231 356.776 329.791 357.976 329.055 359.064C328.319 360.152 327.327 361.024 326.079 361.68C324.831 362.32 323.359 362.64 321.663 362.64ZM332.769 362.16V344.64H337.233V362.16H332.769ZM348.319 362.64C346.639 362.64 345.215 362.328 344.047 361.704C342.895 361.08 342.015 360.2 341.407 359.064C340.799 357.912 340.495 356.552 340.495 354.984V344.64H344.959V355.08C344.959 355.768 345.087 356.368 345.343 356.88C345.615 357.392 345.999 357.784 346.495 358.056C346.991 358.328 347.599 358.464 348.319 358.464C349.039 358.464 349.647 358.328 350.143 358.056C350.639 357.784 351.015 357.4 351.271 356.904C351.527 356.392 351.655 355.784 351.655 355.08V344.64H356.119V354.984C356.119 356.552 355.815 357.912 355.207 359.064C354.615 360.2 353.735 361.08 352.567 361.704C351.415 362.328 349.999 362.64 348.319 362.64ZM365.586 362.64C363.954 362.64 362.578 362.384 361.458 361.872C360.354 361.36 359.514 360.664 358.938 359.784C358.378 358.888 358.098 357.864 358.098 356.712H362.418C362.418 357.128 362.53 357.512 362.754 357.864C362.994 358.2 363.346 358.464 363.81 358.656C364.274 358.848 364.866 358.944 365.586 358.944C366.21 358.944 366.738 358.864 367.17 358.704C367.618 358.544 367.954 358.32 368.178 358.032C368.418 357.744 368.538 357.4 368.538 357C368.538 356.488 368.322 356.096 367.89 355.824C367.458 355.536 366.73 355.352 365.706 355.272L364.578 355.176C362.77 355.016 361.33 354.448 360.258 353.472C359.186 352.496 358.65 351.2 358.65 349.584C358.65 348.432 358.914 347.448 359.442 346.632C359.986 345.816 360.746 345.192 361.722 344.76C362.698 344.328 363.85 344.112 365.178 344.112C366.618 344.112 367.834 344.352 368.826 344.832C369.834 345.312 370.602 345.992 371.13 346.872C371.658 347.736 371.922 348.744 371.922 349.896H367.602C367.602 349.512 367.506 349.16 367.314 348.84C367.122 348.52 366.842 348.272 366.474 348.096C366.122 347.904 365.69 347.808 365.178 347.808C364.698 347.808 364.29 347.888 363.954 348.048C363.634 348.192 363.386 348.4 363.21 348.672C363.05 348.944 362.97 349.248 362.97 349.584C362.97 350.032 363.122 350.416 363.426 350.736C363.73 351.056 364.258 351.248 365.01 351.312L366.138 351.408C367.45 351.52 368.61 351.808 369.618 352.272C370.626 352.72 371.418 353.336 371.994 354.12C372.57 354.904 372.858 355.864 372.858 357C372.858 358.136 372.562 359.128 371.97 359.976C371.394 360.824 370.562 361.48 369.474 361.944C368.402 362.408 367.106 362.64 365.586 362.64ZM384.049 362.256V358.08H386.929C387.681 358.08 388.353 357.976 388.945 357.768C389.553 357.544 390.065 357.232 390.481 356.832C390.897 356.416 391.217 355.92 391.441 355.344C391.665 354.752 391.777 354.088 391.777 353.352C391.777 352.584 391.665 351.912 391.441 351.336C391.217 350.744 390.897 350.256 390.481 349.872C390.065 349.472 389.553 349.176 388.945 348.984C388.353 348.776 387.681 348.672 386.929 348.672H384.049V344.496H386.737C388.321 344.496 389.705 344.72 390.889 345.168C392.089 345.616 393.089 346.24 393.889 347.04C394.689 347.824 395.289 348.736 395.689 349.776C396.089 350.816 396.289 351.92 396.289 353.088V353.616C396.289 354.688 396.089 355.744 395.689 356.784C395.289 357.808 394.689 358.736 393.889 359.568C393.089 360.384 392.089 361.04 390.889 361.536C389.705 362.016 388.321 362.256 386.737 362.256H384.049ZM380.065 362.256V344.496H384.529V362.256H380.065ZM407.337 362.64C405.737 362.64 404.345 362.368 403.161 361.824C401.977 361.264 400.993 360.536 400.209 359.64C399.425 358.728 398.841 357.744 398.457 356.688C398.073 355.632 397.881 354.608 397.881 353.616V353.088C397.881 351.984 398.081 350.904 398.481 349.848C398.881 348.776 399.481 347.808 400.281 346.944C401.081 346.08 402.065 345.392 403.233 344.88C404.417 344.368 405.785 344.112 407.337 344.112C408.873 344.112 410.225 344.368 411.393 344.88C412.577 345.392 413.569 346.08 414.369 346.944C415.169 347.808 415.769 348.776 416.169 349.848C416.585 350.904 416.793 351.984 416.793 353.088V353.616C416.793 354.608 416.593 355.632 416.193 356.688C415.809 357.744 415.225 358.728 414.441 359.64C413.657 360.536 412.673 361.264 411.489 361.824C410.305 362.368 408.921 362.64 407.337 362.64ZM407.337 358.464C408.105 358.464 408.793 358.336 409.401 358.08C410.009 357.824 410.529 357.464 410.961 357C411.393 356.536 411.721 356 411.945 355.392C412.169 354.768 412.281 354.096 412.281 353.376C412.281 352.608 412.161 351.912 411.921 351.288C411.697 350.664 411.369 350.128 410.937 349.68C410.505 349.232 409.985 348.888 409.377 348.648C408.769 348.408 408.089 348.288 407.337 348.288C406.569 348.288 405.881 348.408 405.273 348.648C404.665 348.888 404.145 349.232 403.713 349.68C403.281 350.128 402.953 350.664 402.729 351.288C402.505 351.912 402.393 352.608 402.393 353.376C402.393 354.096 402.505 354.768 402.729 355.392C402.953 356 403.281 356.536 403.713 357C404.145 357.464 404.665 357.824 405.273 358.08C405.881 358.336 406.569 358.464 407.337 358.464ZM425.563 362.64C423.931 362.64 422.555 362.384 421.435 361.872C420.331 361.36 419.491 360.664 418.915 359.784C418.355 358.888 418.075 357.864 418.075 356.712H422.395C422.395 357.128 422.507 357.512 422.731 357.864C422.971 358.2 423.323 358.464 423.787 358.656C424.251 358.848 424.843 358.944 425.563 358.944C426.187 358.944 426.715 358.864 427.147 358.704C427.595 358.544 427.931 358.32 428.155 358.032C428.395 357.744 428.515 357.4 428.515 357C428.515 356.488 428.299 356.096 427.867 355.824C427.435 355.536 426.707 355.352 425.683 355.272L424.555 355.176C422.747 355.016 421.307 354.448 420.235 353.472C419.163 352.496 418.627 351.2 418.627 349.584C418.627 348.432 418.891 347.448 419.419 346.632C419.963 345.816 420.723 345.192 421.699 344.76C422.675 344.328 423.827 344.112 425.155 344.112C426.595 344.112 427.811 344.352 428.803 344.832C429.811 345.312 430.579 345.992 431.107 346.872C431.635 347.736 431.899 348.744 431.899 349.896H427.579C427.579 349.512 427.483 349.16 427.291 348.84C427.099 348.52 426.819 348.272 426.451 348.096C426.099 347.904 425.667 347.808 425.155 347.808C424.675 347.808 424.267 347.888 423.931 348.048C423.611 348.192 423.363 348.4 423.187 348.672C423.027 348.944 422.947 349.248 422.947 349.584C422.947 350.032 423.099 350.416 423.403 350.736C423.707 351.056 424.235 351.248 424.987 351.312L426.115 351.408C427.427 351.52 428.587 351.808 429.595 352.272C430.603 352.72 431.395 353.336 431.971 354.12C432.547 354.904 432.835 355.864 432.835 357C432.835 358.136 432.539 359.128 431.947 359.976C431.371 360.824 430.539 361.48 429.451 361.944C428.379 362.408 427.083 362.64 425.563 362.64ZM440.042 362.16V344.496H444.506V362.16H440.042ZM450.602 362.16L445.682 354.72H450.53L455.738 362.16H450.602ZM443.378 356.784V353.352H447.578C448.106 353.352 448.562 353.248 448.946 353.04C449.33 352.832 449.626 352.536 449.834 352.152C450.058 351.768 450.17 351.32 450.17 350.808C450.17 350.28 450.058 349.824 449.834 349.44C449.626 349.056 449.33 348.76 448.946 348.552C448.562 348.344 448.106 348.24 447.578 348.24H443.378V344.496H447.314C448.834 344.496 450.146 344.728 451.25 345.192C452.354 345.64 453.202 346.312 453.794 347.208C454.386 348.088 454.682 349.184 454.682 350.496V350.88C454.682 352.192 454.378 353.288 453.77 354.168C453.178 355.032 452.33 355.688 451.226 356.136C450.138 356.568 448.834 356.784 447.314 356.784H443.378ZM457.807 362.16V344.64H462.127V362.16H457.807ZM461.647 362.16V358.512H469.039V362.16H461.647ZM461.647 355.08V351.432H468.535V355.08H461.647ZM461.647 348.288V344.64H468.895V348.288H461.647ZM472.058 362.16V344.64H476.522V362.16H472.058ZM486.36 362.64C484.728 362.64 483.352 362.384 482.232 361.872C481.128 361.36 480.288 360.664 479.712 359.784C479.152 358.888 478.872 357.864 478.872 356.712H483.192C483.192 357.128 483.304 357.512 483.528 357.864C483.768 358.2 484.12 358.464 484.584 358.656C485.048 358.848 485.64 358.944 486.36 358.944C486.984 358.944 487.512 358.864 487.944 358.704C488.392 358.544 488.728 358.32 488.952 358.032C489.192 357.744 489.312 357.4 489.312 357C489.312 356.488 489.096 356.096 488.664 355.824C488.232 355.536 487.504 355.352 486.48 355.272L485.352 355.176C483.544 355.016 482.104 354.448 481.032 353.472C479.96 352.496 479.424 351.2 479.424 349.584C479.424 348.432 479.688 347.448 480.216 346.632C480.76 345.816 481.52 345.192 482.496 344.76C483.472 344.328 484.624 344.112 485.952 344.112C487.392 344.112 488.608 344.352 489.6 344.832C490.608 345.312 491.376 345.992 491.904 346.872C492.432 347.736 492.696 348.744 492.696 349.896H488.376C488.376 349.512 488.28 349.16 488.088 348.84C487.896 348.52 487.616 348.272 487.248 348.096C486.896 347.904 486.464 347.808 485.952 347.808C485.472 347.808 485.064 347.888 484.728 348.048C484.408 348.192 484.16 348.4 483.984 348.672C483.824 348.944 483.744 349.248 483.744 349.584C483.744 350.032 483.896 350.416 484.2 350.736C484.504 351.056 485.032 351.248 485.784 351.312L486.912 351.408C488.224 351.52 489.384 351.808 490.392 352.272C491.4 352.72 492.192 353.336 492.768 354.12C493.344 354.904 493.632 355.864 493.632 357C493.632 358.136 493.336 359.128 492.744 359.976C492.168 360.824 491.336 361.48 490.248 361.944C489.176 362.408 487.88 362.64 486.36 362.64Z" fill="#FEFBFF"/>
<path fill-rule="evenodd" clip-rule="evenodd" d="M94.6654 319.851C94.6654 319.852 94.6657 319.826 94.6766 319.771C94.6871 319.717 94.7054 319.646 94.7347 319.559C94.7935 319.385 94.8901 319.165 95.0334 318.917C95.32 318.421 95.7759 317.841 96.4342 317.301C97.733 316.235 99.8636 315.292 103.14 315.533C116.1 316.484 123.415 325.41 123.415 332.161V372.168C123.415 372.805 123.268 373.099 123.132 373.241C123.004 373.375 122.718 373.546 122.028 373.546H114.306C113.616 373.546 113.33 373.375 113.202 373.241C113.066 373.1 112.919 372.805 112.919 372.168V335.238C112.919 332.828 111.735 330.421 109.988 328.634C108.238 326.842 105.817 325.566 103.213 325.566H94.6654V319.851ZM103.213 327.566H94.6654V372.168C94.6654 373.162 94.4817 374.108 93.7928 374.763C93.1156 375.407 92.1813 375.546 91.2784 375.546H83.4154C82.6084 375.546 81.7233 375.389 81.0382 374.792C80.3257 374.171 80.0284 373.251 80.0284 372.168V334.819C80.0284 332.956 81.0921 330.668 82.6635 328.878C84.2482 327.074 86.5354 325.566 89.1714 325.566H92.6654V319.851C92.6654 319.284 92.9171 318.582 93.3016 317.917C93.7056 317.217 94.317 316.45 95.1659 315.754C96.8815 314.347 99.525 313.262 103.287 313.538C117.005 314.545 125.415 324.098 125.415 332.161V372.168C125.415 373.069 125.212 373.963 124.575 374.626C123.931 375.297 123.024 375.546 122.028 375.546H114.306C113.311 375.546 112.403 375.297 111.759 374.626C111.123 373.963 110.919 373.069 110.919 372.168V335.238C110.919 333.463 110.026 331.534 108.558 330.031C107.093 328.532 105.161 327.566 103.213 327.566ZM89.1714 327.566H92.6654V372.168C92.6654 372.991 92.498 373.235 92.4146 373.314C92.3196 373.404 92.0604 373.546 91.2784 373.546H83.4154C82.8182 373.546 82.5098 373.422 82.3524 373.285C82.2226 373.171 82.0284 372.902 82.0284 372.168V334.819C82.0284 333.604 82.7896 331.766 84.1664 330.198C85.5299 328.645 87.3142 327.566 89.1714 327.566ZM164.111 381.128C164.111 381.13 164.11 381.156 164.1 381.209C164.089 381.262 164.071 381.333 164.042 381.42C163.983 381.595 163.886 381.814 163.743 382.063C163.457 382.559 163.001 383.139 162.342 383.679C161.043 384.744 158.913 385.687 155.636 385.447C142.676 384.495 135.361 375.569 135.361 368.819V328.812C135.361 328.175 135.508 327.88 135.644 327.739C135.772 327.605 136.058 327.434 136.748 327.434H144.471C145.16 327.434 145.446 327.605 145.575 327.739C145.71 327.88 145.858 328.175 145.858 328.812V365.741C145.858 368.151 147.042 370.559 148.788 372.346C150.539 374.137 152.96 375.414 155.563 375.414H164.111V381.128ZM155.563 373.414H164.111V328.812C164.111 327.817 164.295 326.872 164.984 326.216C165.661 325.572 166.595 325.434 167.498 325.434H175.361C176.168 325.434 177.053 325.59 177.738 326.187C178.451 326.808 178.748 327.728 178.748 328.812V366.161C178.748 368.023 177.684 370.312 176.113 372.101C174.528 373.906 172.241 375.414 169.605 375.414H166.111V381.128C166.111 381.695 165.859 382.397 165.475 383.063C165.071 383.762 164.459 384.529 163.611 385.225C161.895 386.632 159.252 387.718 155.49 387.441C141.772 386.434 133.361 376.882 133.361 368.819V328.812C133.361 327.91 133.565 327.016 134.201 326.353C134.845 325.683 135.753 325.434 136.748 325.434H144.471C145.466 325.434 146.373 325.683 147.017 326.353C147.654 327.016 147.858 327.91 147.858 328.812V365.741C147.858 367.516 148.75 369.445 150.219 370.948C151.683 372.447 153.615 373.414 155.563 373.414ZM169.605 373.414H166.111V328.812C166.111 327.988 166.279 327.745 166.362 327.666C166.457 327.575 166.716 327.434 167.498 327.434H175.361C175.958 327.434 176.267 327.558 176.424 327.695C176.554 327.808 176.748 328.077 176.748 328.812V366.161C176.748 367.376 175.987 369.214 174.61 370.782C173.247 372.334 171.462 373.414 169.605 373.414Z" fill="#FEFBFF"/>
<path d="M581.889 132.248C607.156 132.248 627.639 111.764 627.639 86.4971C627.639 61.2298 607.156 40.7466 581.889 40.7466C556.622 40.7466 536.138 61.2298 536.138 86.4971C536.138 111.764 556.622 132.248 581.889 132.248Z" fill="#E71924"/>
<path d="M637.647 132.248C662.914 132.248 683.398 111.764 683.398 86.4971C683.398 61.2298 662.914 40.7466 637.647 40.7466C612.38 40.7466 591.896 61.2298 591.896 86.4971C591.896 111.764 612.38 132.248 637.647 132.248Z" fill="#F99F19"/>
<path fill-rule="evenodd" clip-rule="evenodd" d="M609.768 122.595C620.636 114.23 627.64 101.092 627.64 86.3172C627.64 71.5427 620.636 58.404 609.768 50.0396C598.9 58.404 591.897 71.5427 591.897 86.3172C591.897 101.092 598.9 114.23 609.768 122.595Z" fill="#F26520"/>
<path d="M172.279 156.195H86.4971C83.1413 156.195 80.4209 158.915 80.4209 162.271V219.459C80.4209 222.815 83.1413 225.536 86.4971 225.536H172.279C175.635 225.536 178.356 222.815 178.356 219.459V162.271C178.356 158.915 175.635 156.195 172.279 156.195Z" fill="url(#paint1_linear_21_2)" stroke="#211F21" stroke-width="2.14455"/>
<path d="M80.7783 178.713H110.087" stroke="#211F21" stroke-width="2" stroke-linecap="round"/>
<path d="M80.7783 200.873H109.445" stroke="#211F21" stroke-width="2" stroke-linecap="round"/>
<path d="M149.404 200.873H177.998" stroke="#211F21" stroke-width="2" stroke-linecap="round"/>
<path d="M148.975 179.428H177.998" stroke="#211F21" stroke-width="2" stroke-linecap="round"/>
<path d="M129.388 168.706C130.572 168.706 131.533 167.745 131.533 166.561C131.533 165.377 130.572 164.417 129.388 164.417C128.204 164.417 127.243 165.377 127.243 166.561C127.243 167.745 128.204 168.706 129.388 168.706Z" fill="#211F21"/>
<path d="M231.053 205.824C236.325 192.59 236.926 185.119 231.053 171.645C230.43 170.215 231.053 169.024 231.768 168.786C232.483 168.547 233.589 168.786 234.27 170.215C241.188 184.73 240.767 192.87 234.627 207.387C233.912 208.817 232.575 208.998 231.768 208.46C230.824 207.831 230.608 206.941 231.053 205.824Z" fill="#FEFBFF"/>
<path d="M223.547 172.717C222.832 173.075 222.375 174.43 223.19 175.934C227.999 185.94 227.801 191.662 223.19 202.026C222.686 203.071 222.998 204.226 223.905 204.528C224.977 204.886 225.913 204.125 226.406 203.098C231.701 192.084 231.84 185.756 226.406 174.147C225.905 173.075 224.619 172.181 223.547 172.717Z" fill="#FEFBFF"/>
<path d="M216.399 177.364C215.326 177.721 215.136 178.908 215.684 180.223C218.53 187.063 218.979 190.898 215.684 197.737C215.041 198.929 214.83 200.193 216.041 200.596C217.252 201 218.126 200.363 218.543 199.524C222.766 191.149 221.82 186.454 218.543 178.079C218.263 177.364 217.471 177.006 216.399 177.364Z" fill="#FEFBFF"/>
<path d="M208.893 180.223C207.82 180.938 207.668 182.022 208.535 183.797C210.344 187.564 210.303 189.68 208.535 193.448C207.713 195.11 207.463 197.022 208.893 197.38C210.322 197.737 210.957 197.229 211.752 195.235C213.578 189.987 213.756 187.02 211.752 181.653C211.291 180.261 210.322 179.508 208.893 180.223Z" fill="#FEFBFF"/>
<path d="M145.115 170.849C142.372 161.508 137.251 156.91 129.03 156.91C119.023 156.91 116.194 164.53 110.087 178.355C113.998 187.507 114.039 192.437 110.087 200.873C116.494 219.254 121.24 224.915 129.388 224.821C140.111 224.821 143.163 215.733 149.046 200.873C145.952 192.497 145.622 187.875 148.5 179.5" stroke="#211F21" stroke-width="2" stroke-linecap="round"/>
<defs>
<filter id="filter0_i_21_2" x="0" y="0" width="725" height="461" filterUnits="userSpaceOnUse" color-interpolation-filters="sRGB">
<feFlood flood-opacity="0" result="BackgroundImageFix"/>
<feBlend mode="normal" in="SourceGraphic" in2="BackgroundImageFix" result="shape"/>
<feColorMatrix in="SourceAlpha" type="matrix" values="0 0 0 0 0 0 0 0 0 0 0 0 0 0 0 0 0 0 127 0" result="hardAlpha"/>
<feOffset dx="3" dy="3"/>
<feGaussianBlur stdDeviation="3"/>
<feComposite in2="hardAlpha" operator="arithmetic" k2="-1" k3="1"/>
<feColorMatrix type="matrix" values="0 0 0 0 1 0 0 0 0 1 0 0 0 0 1 0 0 0 0.25 0"/>
<feBlend mode="normal" in2="shape" result="effect1_innerShadow_21_2"/>
</filter>
<linearGradient id="paint0_linear_21_2" x1="610.09" y1="61.83" x2="354.096" y2="526.995" gradientUnits="userSpaceOnUse">
<stop stop-color="#A950C4"/>
<stop offset="1" stop-color="#82269E"/>
</linearGradient>
<linearGradient id="paint1_linear_21_2" x1="171" y1="165" x2="87" y2="221" gradientUnits="userSpaceOnUse">
<stop stop-color="#F4F4F4"/>
<stop offset="1" stop-color="#D6D6D6"/>
</linearGradient>
</defs>
</svg>
